<svg width="175" height="87.5" viewBox="0 0 175 87.5" xmlns="http://www.w3.org/2000/svg"><g id="svgGroup" stroke-linecap="round" fill-rule="evenodd" font-size="9pt" stroke="#000" stroke-width="0.35mm" fill="#ffffff" style="stroke:#000;stroke-width:0.35mm;fill:#ffffff"><path d="M 162.5 87.5 L 100 87.5 L 100 75 L 87.5 75 L 87.5 62.5 L 112.5 62.5 L 112.5 75 L 150 75 L 150 50 L 100 50 L 100 37.5 L 87.5 37.5 L 87.5 12.5 L 100 12.5 L 100 0 L 162.5 0 L 162.5 12.5 L 175 12.5 L 175 25 L 150 25 L 150 12.5 L 112.5 12.5 L 112.5 37.5 L 162.5 37.5 L 162.5 50 L 175 50 L 175 75 L 162.5 75 L 162.5 87.5 Z M 50 87.5 L 25 87.5 L 25 50 L 12.5 50 L 12.5 37.5 L 0 37.5 L 0 0 L 25 0 L 25 37.5 L 50 37.5 L 50 0 L 75 0 L 75 37.5 L 62.5 37.5 L 62.5 50 L 50 50 L 50 87.5 Z" vector-effect="non-scaling-stroke"/></g></svg>